<svg preserveAspectRatio="none" overflow="visible" style="display: block;" width="20" height="20" viewBox="0 0 20 20" fill="none" xmlns="http://www.w3.org/2000/svg">
<g id="basil:exchange-outline">
<path id="Vector" d="M6.275 5.44167C6.3854 5.32319 6.4455 5.16648 6.44265 5.00456C6.43979 4.84265 6.3742 4.68816 6.25968 4.57365C6.14517 4.45914 5.99069 4.39354 5.82877 4.39069C5.66685 4.38783 5.51015 4.44793 5.39167 4.55833L3.725 6.225C3.60796 6.34219 3.54222 6.50104 3.54222 6.66667C3.54222 6.83229 3.60796 6.99114 3.725 7.10833L5.39167 8.775C5.44888 8.83641 5.51789 8.88566 5.59455 8.91982C5.67122 8.95398 5.75398 8.97235 5.8379 8.97383C5.92182 8.97531 6.00517 8.95987 6.083 8.92844C6.16082 8.897 6.23152 8.85021 6.29087 8.79086C6.35021 8.73152 6.397 8.66082 6.42844 8.583C6.45987 8.50517 6.47531 8.42182 6.47383 8.3379C6.47235 8.25398 6.45398 8.17122 6.41982 8.09455C6.38566 8.01789 6.33641 7.94888 6.275 7.89167L5.675 7.29167H14.1667C14.3324 7.29167 14.4914 7.22582 14.6086 7.10861C14.7258 6.9914 14.7917 6.83243 14.7917 6.66667C14.7917 6.50091 14.7258 6.34193 14.6086 6.22472C14.4914 6.10751 14.3324 6.04167 14.1667 6.04167H5.675L6.275 5.44167ZM13.725 11.225C13.608 11.3422 13.5422 11.501 13.5422 11.6667C13.5422 11.8323 13.608 11.9911 13.725 12.1083L14.325 12.7083H5.83333C5.66757 12.7083 5.5086 12.7742 5.39139 12.8914C5.27418 13.0086 5.20833 13.1676 5.20833 13.3333C5.20833 13.4991 5.27418 13.6581 5.39139 13.7753C5.5086 13.8925 5.66757 13.9583 5.83333 13.9583H14.325L13.725 14.5583C13.6636 14.6156 13.6143 14.6846 13.5802 14.7612C13.546 14.8379 13.5277 14.9206 13.5262 15.0046C13.5247 15.0885 13.5401 15.1718 13.5716 15.2497C13.603 15.3275 13.6498 15.3982 13.7091 15.4575C13.7685 15.5169 13.8392 15.5637 13.917 15.5951C13.9948 15.6265 14.0782 15.642 14.1621 15.6405C14.246 15.639 14.3288 15.6206 14.4054 15.5865C14.4821 15.5523 14.5511 15.5031 14.6083 15.4417L16.275 13.775C16.392 13.6578 16.4578 13.499 16.4578 13.3333C16.4578 13.1677 16.392 13.0089 16.275 12.8917L14.6083 11.225C14.4911 11.108 14.3323 11.0422 14.1667 11.0422C14.001 11.0422 13.8422 11.108 13.725 11.225Z" fill="#111317"/>
</g>
</svg>
